<svg width="361" height="274" viewBox="0 0 361 274" fill="none" xmlns="http://www.w3.org/2000/svg">
<path d="M9.22614 182.223C4.62581 197.617 16.1551 213.095 32.2212 213.095H262.052C272.694 213.095 282.066 206.087 285.073 195.878L328.892 47.1422C333.421 31.7685 321.897 16.3599 305.87 16.3599H185.826C178.766 16.3599 172.065 13.2518 167.504 7.86255L166.351 6.49932C165.927 5.99842 165.528 5.47879 165.083 4.99693C163.65 3.44627 159.779 0.0333454 153.47 0.0333454L144.75 0.0333497C127.646 0.0333611 91.6954 0.0333856 78.3676 0.0333454C61.6423 0.0332955 63.4696 -0.37482 62.8574 1.66599C62.3556 3.3386 61.5796 6.38203 61.316 7.42579C61.2547 7.66851 61.1906 7.90888 61.1223 8.14973L58.7945 16.3599L9.22614 182.223Z" fill="#123753"/>
<path d="M3.76579 200.495C1.8881 206.778 6.59395 213.095 13.1516 213.095H272.675C277.019 213.095 280.844 210.235 282.071 206.068L334.259 28.9242C336.108 22.6492 331.404 16.3599 324.862 16.3599H179.238C176.356 16.3599 173.621 15.0913 171.76 12.8916L165.975 6.05446C165.802 5.85001 165.64 5.64131 165.469 5.43546C164.475 4.24178 160.476 0.0333454 153.47 0.0333454L144.75 0.0333497C127.646 0.0333611 91.6954 0.0333856 78.3676 0.0333454C61.6423 0.0332955 63.4696 -0.37482 62.8574 1.66599C62.314 3.4772 61.4492 6.89583 61.2614 7.64215C61.2365 7.74125 61.2108 7.83759 61.1829 7.9359L58.7945 16.3599L3.76579 200.495Z" fill="#123753"/>
<path d="M19.0211 218.958C14.4207 234.352 25.95 249.83 42.0162 249.83H271.847C282.489 249.83 291.861 242.821 294.868 232.613L338.687 83.8771C343.216 68.5033 331.692 53.0948 315.665 53.0948H195.621C188.561 53.0948 181.859 49.9866 177.299 44.5974L176.146 43.2342C175.722 42.7333 175.323 42.2136 174.878 41.7318C173.445 40.1811 169.574 36.7682 163.265 36.7682L154.545 36.7682C137.441 36.7682 101.49 36.7682 88.1626 36.7682C71.4372 36.7681 73.2645 36.36 72.6523 38.4008C72.1505 40.0734 71.3746 43.1169 71.1109 44.1606C71.0496 44.4034 70.9855 44.6437 70.9172 44.8846L68.5894 53.0948L19.0211 218.958Z" fill="#FF7F00"/>
<path d="M13.5607 237.229C11.683 243.512 16.3889 249.83 22.9465 249.83H282.47C286.814 249.83 290.639 246.97 291.866 242.803L344.054 65.6591C345.903 59.384 341.199 53.0948 334.657 53.0948H189.033C186.151 53.0948 183.416 51.8261 181.555 49.6265L175.769 42.7893C175.596 42.5849 175.435 42.3762 175.264 42.1703C174.27 40.9766 170.27 36.7682 163.265 36.7682L154.545 36.7682C137.441 36.7682 101.49 36.7682 88.1626 36.7682C71.4372 36.7681 73.2645 36.36 72.6523 38.4008C72.1089 40.212 71.2441 43.6307 71.0564 44.377C71.0314 44.4761 71.0057 44.5724 70.9778 44.6707L68.5894 53.0948L13.5607 237.229Z" fill="#FF7F00"/>
<path d="M31.2672 243.04C26.6668 258.433 38.1961 273.912 54.2623 273.912H284.093C294.735 273.912 304.107 266.903 307.115 256.694L350.933 107.959C355.462 92.585 343.938 77.1765 327.911 77.1765H207.867C200.807 77.1765 194.106 74.0683 189.545 68.6791L188.392 67.3159C187.968 66.815 187.569 66.2954 187.124 65.8135C185.691 64.2628 181.82 60.8499 175.511 60.8499L166.791 60.8499C149.687 60.8499 113.736 60.85 100.409 60.8499C83.6833 60.8499 85.5106 60.4417 84.8984 62.4826C84.3966 64.1552 83.6207 67.1986 83.357 68.2424C83.2957 68.4851 83.2316 68.7254 83.1633 68.9663L80.8355 77.1765L31.2672 243.04Z" fill="#6EAFDF"/>
<path d="M25.8068 261.311C23.9291 267.594 28.635 273.912 35.1926 273.912H294.716C299.06 273.912 302.885 271.051 304.112 266.884L356.3 89.7408C358.149 83.4657 353.445 77.1765 346.903 77.1765H201.279C198.397 77.1765 195.662 75.9079 193.801 73.7082L188.016 66.871C187.843 66.6666 187.681 66.4579 187.51 66.252C186.516 65.0583 182.517 60.8499 175.511 60.8499L166.791 60.8499C149.687 60.8499 113.736 60.85 100.409 60.8499C83.6833 60.8499 85.5106 60.4417 84.8984 62.4826C84.355 64.2938 83.4902 67.7124 83.3024 68.4587C83.2775 68.5578 83.2518 68.6542 83.2239 68.7525L80.8355 77.1765L25.8068 261.311Z" fill="#6EAFDF"/>
<path d="M191.035 91.0208H105.32C94.7063 91.0208 93.073 110.613 105.32 110.613H164.096C173.441 102.286 179.523 100.614 191.035 100V91.0208Z" fill="#EDEEF4"/>
<path d="M161.443 115.511L150.831 135.103H100.218C88.7873 135.103 90.4213 115.511 100.218 115.511H161.443Z" fill="#EDEEF4"/>
<path d="M148.17 140.001L97.1486 140.001C90.2114 140.001 91.0256 147.143 97.1471 149.184C103.269 151.225 136.536 150.205 140.415 149.184C144.294 148.164 151.232 140.001 148.17 140.001Z" fill="#EDEEF4"/>
<path d="M102.181 167.348C93.5218 171.144 96.4693 178.776 102.181 178.776H131.161C141.776 178.776 139.327 167.348 131.161 167.348H102.181Z" fill="#123753"/>
<path d="M102.181 200.001C93.5218 203.798 96.4693 211.429 102.181 211.429H131.161C141.776 211.429 139.327 200.001 131.161 200.001H102.181Z" fill="#123753"/>
<path d="M102.181 183.674C93.5218 187.471 96.4693 195.103 102.181 195.103H131.161C141.776 195.103 139.327 183.674 131.161 183.674H102.181Z" fill="#123753"/>
<path d="M160.409 189.388C160.409 192.319 157.211 194.695 153.266 194.695C149.321 194.695 146.123 192.319 146.123 189.388C146.123 186.458 149.321 184.082 153.266 184.082C157.211 184.082 160.409 186.458 160.409 189.388Z" fill="#123753"/>
</svg>
